# xmcd CD database file
#
# Track frame offsets:
#	150
#	42888
#	53924
#	57869
#	65615
#	69338
#	76912
#	95158
#	128082
#	132636
#	142946
#	145536
#	157091
#	163130
#	178061
#	241449
#
# Disc length: 3415 seconds
#
# Revision: 0
# Processed by: cddbd v1.5.1PL2 Copyright (c) Steve Scherf et al.
# Submitted via: CDex 1.51
#
DISCID=e80d5510
DTITLE=Poing - Giants of Jazz
DYEAR=2001
DGENRE=Jazz
TTITLE0=Essential Extensions
TTITLE1=Seven Types of Ambiguity I
TTITLE2=Seven Types of Ambiguity II
TTITLE3=Seven Types of Ambiguity III
TTITLE4=Seven Types of Ambiguity IV
TTITLE5=Seven Types of Ambiguity V
TTITLE6=Seven Types of Ambiguity VI
TTITLE7=Fisk i Kjerka
TTITLE8=("But Brother Ass, there is a whole dimension lacking to what you say. How is it possible for one to convey this in Oxford English?") I
TTITLE9=("But Brother Ass, there is a whole dimension lacking to what you say. How is it possible for one to convey this in Oxford English?") II
TTITLE10=("But Brother Ass, there is a whole dimension lacking to what you say. How is it possible for one to convey this in Oxford English?") III
TTITLE11=("But Brother Ass, there is a whole dimension lacking to what you say. How is it possible for one to convey this in Oxford English?") IV
TTITLE12=("But Brother Ass, there is a whole dimension lacking to what you say. How is it possible for one to convey this in Oxford English?") V
TTITLE13=("But Brother Ass, there is a whole dimension lacking to what you say. How is it possible for one to convey this in Oxford English?") VI
TTITLE14=Giants of Jazz
TTITLE15=Lumière, espace et vertes
EXTD=YEAR: 2001
EXTT0=
EXTT1=
EXTT2=
EXTT3=
EXTT4=
EXTT5=
EXTT6=
EXTT7=
EXTT8=
EXTT9=
EXTT10=
EXTT11=
EXTT12=
EXTT13=
EXTT14=
EXTT15=
PLAYORDER=
